<svg width="19" height="16" viewBox="0 0 19 16" fill="none" xmlns="http://www.w3.org/2000/svg">
<path d="M9.651 15.3323C9.59595 15.3654 9.54607 15.395 9.50173 15.4212C9.45713 15.3945 9.40691 15.3643 9.35144 15.3306C9.09634 15.1756 8.73063 14.9476 8.29124 14.6573C7.4115 14.0762 6.24104 13.2485 5.073 12.26C3.90261 11.2697 2.74898 10.1299 1.89154 8.92689C1.03046 7.71877 0.5 6.49167 0.5 5.31608C0.5 2.64295 2.60313 0.500161 5.16802 0.500177L5.17203 0.500145C6.74194 0.487551 8.21586 1.29966 9.0772 2.66438L9.49756 3.33041L9.92144 2.66661C10.7894 1.30739 12.2607 0.496474 13.8301 0.500158C16.3906 0.513326 18.4867 2.64907 18.5 5.31724C18.4997 6.51342 17.968 7.75032 17.1081 8.96043C16.251 10.1664 15.0979 11.3034 13.9279 12.2886C12.7603 13.2718 11.5903 14.0921 10.7108 14.667C10.2716 14.9542 9.90598 15.1794 9.651 15.3323Z" stroke="#FF5563"/>
</svg>
