<svg width="17" height="17" viewBox="0 0 17 17" fill="none" xmlns="http://www.w3.org/2000/svg">
<path d="M16.1839 7.49291C16.1288 7.14756 15.8041 6.91229 15.4588 6.96738C15.1134 7.02248 14.8782 7.34713 14.9333 7.69248C14.9338 7.69627 14.9345 7.70002 14.9351 7.70376C15.58 11.4998 13.0255 15.0998 9.22944 15.7446C5.43341 16.3895 1.8334 13.835 1.18856 10.0389C0.543711 6.24292 3.09828 2.64291 6.89426 1.99806C9.22873 1.6015 11.6049 2.41695 13.2039 4.16341L10.3988 5.09803C10.0669 5.20845 9.88746 5.56694 9.99784 5.89879C9.99787 5.89886 9.99791 5.89897 9.99795 5.89905C10.1084 6.23089 10.4669 6.41036 10.7987 6.29998C10.7988 6.29994 10.7989 6.29991 10.799 6.29991L14.5983 5.03348C14.857 4.94732 15.0315 4.70523 15.0314 4.43256V0.633233C15.0314 0.283502 14.7479 0 14.3982 0C14.0485 0 13.765 0.283502 13.765 0.633233V2.94637C10.5039 -0.155275 5.34593 -0.026046 2.24428 3.23499C-0.857364 6.49603 -0.728172 11.654 2.5329 14.7557C5.79398 17.8574 10.9519 17.7282 14.0536 14.4671C15.8223 12.6075 16.6116 10.0234 16.1839 7.49291Z" fill="#18A0FB"/>
</svg>
