<svg width="11" height="11" viewBox="0 0 11 11" fill="none" xmlns="http://www.w3.org/2000/svg">
<path d="M10.2955 2.8022C10.0222 3.18145 9.57708 3.42911 9.07488 3.42911C8.7767 3.42911 8.49866 3.34149 8.2646 3.1911L6.76607 4.68972C6.91637 4.92378 7.00399 5.20174 7.00399 5.5C7.00399 6.32933 6.32925 7.00407 5.5 7.00407C4.67067 7.00407 3.99601 6.32933 3.99601 5.5C3.99601 4.67067 4.67067 3.99601 5.5 3.99601C5.79826 3.99601 6.07622 4.08363 6.31028 4.23393L7.8089 2.7354C7.65859 2.50134 7.57089 2.2233 7.57089 1.92512C7.57089 1.42292 7.81855 0.977791 8.1978 0.704453C7.38358 0.24472 6.46059 0 5.5 0C4.03092 0 2.64971 0.572105 1.61091 1.61091C0.572105 2.64971 0 4.03092 0 5.5C0 6.96908 0.572105 8.35029 1.61091 9.38909C2.64971 10.4279 4.03092 11 5.5 11C6.96908 11 8.35029 10.4279 9.38909 9.38909C10.4279 8.35029 11 6.96908 11 5.5C11 4.53941 10.7553 3.61642 10.2955 2.8022Z" fill="#D9D9D9"/>
</svg>
