<?xml version="1.0" standalone="no"?>
<!DOCTYPE svg PUBLIC "-//W3C//DTD SVG 20010904//EN"
 "http://www.w3.org/TR/2001/REC-SVG-20010904/DTD/svg10.dtd">
<svg version="1.0" xmlns="http://www.w3.org/2000/svg"
 width="290.000000pt" height="290.000000pt" viewBox="0 0 290.000000 290.000000"
 preserveAspectRatio="xMidYMid meet">
<metadata>
Created by potrace 1.11, written by Peter Selinger 2001-2013
</metadata>
<g transform="translate(0.000000,290.000000) scale(0.100000,-0.100000)"
fill="#000000" stroke="none">
<path d="M0 1450 l0 -1450 183 0 184 0 67 72 66 73 -2 194 -3 195 -165 111
-165 112 0 502 0 502 195 64 c107 35 384 125 615 200 1090 355 1262 410 1426
466 97 32 178 59 181 59 3 0 20 -22 38 -50 30 -46 44 -62 38 -42 -2 5 52 68
120 142 l122 133 0 83 0 84 -1450 0 -1450 0 0 -1450z"/>
<path d="M2290 2276 l-35 -13 4 -194 c1 -107 4 -195 5 -196 1 -1 19 3 39 9
l37 11 0 199 c0 109 -3 198 -7 197 -5 0 -24 -6 -43 -13z"/>
<path d="M2013 2163 l-133 -45 0 -34 c0 -19 3 -34 8 -34 4 0 43 11 87 25 99
31 105 31 105 1 0 -26 -11 -31 -140 -75 l-55 -18 -3 -106 c-1 -59 -1 -107 0
-107 16 0 209 69 266 95 70 33 72 35 72 69 0 20 -2 36 -4 36 -2 0 -28 -11 -57
-24 -30 -14 -84 -36 -121 -50 l-68 -25 0 34 c0 33 0 33 95 65 l95 32 0 104 c0
57 -3 104 -7 103 -5 0 -68 -21 -140 -46z"/>
<path d="M1378 1944 l-198 -65 0 -40 c0 -29 4 -40 13 -36 84 31 307 100 312
96 5 -5 -3 -94 -21 -241 l-7 -58 34 11 c19 7 39 17 46 23 6 6 19 72 27 146 20
167 20 230 4 229 -7 0 -102 -30 -210 -65z"/>
<path d="M2150 1821 c-101 -32 -180 -84 -206 -132 -8 -15 -14 -46 -14 -68 0
-31 6 -44 28 -61 23 -19 35 -21 83 -16 109 11 258 84 292 144 29 49 28 109 -2
133 -30 24 -106 24 -181 0z m118 -88 c4 -29 -46 -66 -127 -92 -76 -25 -104
-26 -120 -7 -25 30 10 66 96 102 75 31 146 30 151 -3z"/>
<path d="M848 1808 c-36 -9 -38 -12 -38 -48 0 -38 -1 -38 -58 -58 -52 -17 -61
-18 -78 -5 -31 24 -117 12 -166 -23 -83 -58 -124 -195 -83 -274 19 -37 43 -50
95 -50 55 0 103 24 144 71 23 27 48 44 82 54 27 8 52 15 57 15 4 0 7 -36 7
-80 0 -48 4 -80 10 -80 6 0 26 7 45 14 l35 15 0 230 c0 127 -3 231 -7 230 -5
-1 -25 -6 -45 -11z m-38 -202 c0 -29 -4 -36 -31 -45 -46 -16 -49 -15 -49 23 0
28 5 36 28 44 45 17 52 14 52 -22z m-186 8 c21 -20 21 -96 1 -134 -40 -77
-135 -61 -135 23 0 89 86 160 134 111z"/>
<path d="M1333 1688 l-33 -11 0 -106 0 -107 -92 -30 -93 -30 -3 -38 c-3 -37
-3 -38 26 -31 16 3 141 43 278 88 l249 82 3 38 c2 20 0 37 -4 37 -3 0 -63 -18
-131 -40 -69 -22 -129 -40 -134 -40 -5 0 -9 45 -9 100 0 108 1 106 -57 88z"/>
<path d="M535 1283 l-41 -13 4 -103 c2 -56 6 -103 7 -105 2 -2 93 26 204 63
l201 66 0 40 c0 21 -2 39 -4 39 -2 0 -70 -22 -152 -50 -82 -27 -154 -50 -161
-50 -8 0 -13 22 -15 63 l-3 64 -40 -14z"/>
<path d="M1168 753 c7 -3 16 -2 19 1 4 3 -2 6 -13 5 -11 0 -14 -3 -6 -6z"/>
<path d="M1080 730 c-38 -13 -44 -17 -20 -13 35 5 104 31 85 32 -5 0 -35 -9
-65 -19z"/>
<path d="M985 703 c-11 -3 -25 -9 -32 -14 -6 -6 -46 -20 -89 -32 l-79 -23 -39
-69 c-21 -39 -54 -99 -73 -135 -20 -36 -53 -98 -75 -137 -22 -40 -37 -73 -35
-73 3 0 92 93 198 208 106 114 208 224 228 245 35 37 34 39 -4 30z"/>
</g>
</svg>
