<svg width="24" height="23" viewBox="0 0 24 23" fill="none" xmlns="http://www.w3.org/2000/svg">
<path d="M10.1521 5.32184H18.0615C18.4508 5.32184 18.7664 5.62434 18.7664 5.99734V10.7022C18.7664 11.0752 18.451 11.3777 18.0618 11.3777H10.1521C9.76292 11.3777 9.44727 11.0752 9.44727 10.7022V5.99734C9.44727 5.62434 9.76292 5.32184 10.1521 5.32184Z" fill="#979797"/>
<path d="M20.1617 0H6.31934V23H20.1617C21.3263 22.9995 22.2713 22.0973 22.2768 20.9814V2.01862C22.2713 0.902739 21.3263 0.000477892 20.1617 0ZM19.1728 16.0266H8.98473C8.73789 16.0266 8.53792 15.835 8.53792 15.5984C8.53792 15.3618 8.73789 15.1702 8.98473 15.1702H19.1728C19.4197 15.1702 19.6196 15.3618 19.6196 15.5984C19.6196 15.835 19.4197 16.0266 19.1728 16.0266ZM19.6598 10.7022C19.6598 11.5483 18.9442 12.234 18.0613 12.234H10.1519C9.26897 12.234 8.55338 11.5483 8.55338 10.7022V5.99731C8.55338 5.1512 9.26897 4.46543 10.1519 4.46543H18.0613C18.9442 4.46543 19.6598 5.1512 19.6598 5.99731V10.7022Z" fill="#979797"/>
<path d="M1.72363 2.01862V20.9814C1.72912 22.0973 2.6741 22.9995 3.83874 23H5.42576V0H3.83874C2.6741 0.000477892 1.72912 0.902739 1.72363 2.01862Z" fill="#979797"/>
<rect x="7.67969" y="13.4167" width="12.48" height="3.83333" fill="#979797"/>
</svg>
