<svg width="27" height="23" viewBox="0 0 27 23" fill="none" xmlns="http://www.w3.org/2000/svg">
<path d="M13.1429 0C5.89631 0 9.20623e-05 5.15857 9.20623e-05 11.5C9.20623e-05 14.099 0.992378 16.5929 2.81431 18.5971L0.198878 21.643C-0.0114079 21.8861 -0.0590508 22.2295 0.0756635 22.5203C0.208735 22.8127 0.501164 23 0.821521 23H13.1429C20.3896 23 26.2858 17.8414 26.2858 11.5C26.2858 5.15857 20.3896 0 13.1429 0ZM6.57152 13.1429C5.66466 13.1429 4.92866 12.4069 4.92866 11.5C4.92866 10.5931 5.66466 9.85714 6.57152 9.85714C7.47838 9.85714 8.21438 10.5931 8.21438 11.5C8.21438 12.4069 7.47838 13.1429 6.57152 13.1429ZM13.1429 13.1429C12.2361 13.1429 11.5001 12.4069 11.5001 11.5C11.5001 10.5931 12.2361 9.85714 13.1429 9.85714C14.0498 9.85714 14.7858 10.5931 14.7858 11.5C14.7858 12.4069 14.0498 13.1429 13.1429 13.1429ZM19.7144 13.1429C18.8075 13.1429 18.0715 12.4069 18.0715 11.5C18.0715 10.5931 18.8075 9.85714 19.7144 9.85714C20.6212 9.85714 21.3572 10.5931 21.3572 11.5C21.3572 12.4069 20.6212 13.1429 19.7144 13.1429Z" fill="black"/>
</svg>
