<svg width="23" height="23" viewBox="0 0 23 23" fill="none" xmlns="http://www.w3.org/2000/svg">
<g clip-path="url(#clip0)">
<path d="M14.6131 3.61835L3.17804 15.0539L7.94223 19.8181L19.3778 8.38303L14.6131 3.61835Z" fill="black"/>
<path d="M22.8025 4.00395L18.9905 0.191971C18.7378 -0.0607147 18.2904 -0.0607147 18.0377 0.191971L15.5658 2.66398L20.3305 7.42866L22.8025 4.95679C22.9289 4.83043 22.9999 4.65936 22.9999 4.48039C22.9999 4.30143 22.9289 4.13032 22.8025 4.00395Z" fill="black"/>
<path d="M2.22451 16.0067L1.74775 16.4835C1.66748 16.5638 1.60827 16.6631 1.57665 16.7724L0.0256733 22.1347C-0.0421138 22.3709 0.0230229 22.6249 0.196781 22.7986C0.325078 22.9269 0.496859 22.996 0.673177 22.996C0.735709 22.996 0.798869 22.9875 0.860726 22.9697L6.22305 21.4187C6.3323 21.3872 6.43167 21.328 6.51194 21.2476L6.9887 20.7709L2.22451 16.0067Z" fill="black"/>
</g>
<defs>
<clipPath id="clip0">
<rect width="23" height="23" fill="white"/>
</clipPath>
</defs>
</svg>
