<svg width="23" height="23" viewBox="0 0 23 23" fill="none" xmlns="http://www.w3.org/2000/svg">
<g clip-path="url(#clip0)">
<path d="M14.6128 3.61829L3.17773 15.0539L7.94192 19.8181L19.3775 8.38297L14.6128 3.61829Z" fill="#979797"/>
<path d="M22.8022 4.00394L18.9901 0.191956C18.7375 -0.06073 18.29 -0.06073 18.0373 0.191956L15.5654 2.66396L20.3301 7.42865L22.8021 4.95678C22.9285 4.83041 22.9996 4.65935 22.9996 4.48038C22.9996 4.30141 22.9285 4.1303 22.8022 4.00394Z" fill="#979797"/>
<path d="M2.2242 16.0068L1.74745 16.4835C1.66717 16.5638 1.60797 16.6632 1.57634 16.7724L0.0253681 22.1347C-0.042419 22.3709 0.0227177 22.6249 0.196476 22.7986C0.324772 22.9269 0.496554 22.9961 0.672872 22.9961C0.735403 22.9961 0.798564 22.9875 0.860421 22.9698L6.22275 21.4188C6.332 21.3872 6.43136 21.328 6.51164 21.2477L6.98839 20.7709L2.2242 16.0068Z" fill="#979797"/>
</g>
<defs>
<clipPath id="clip0">
<rect width="23" height="23" fill="white"/>
</clipPath>
</defs>
</svg>
