<svg width="23" height="23" viewBox="0 0 23 23" fill="none" xmlns="http://www.w3.org/2000/svg">
<path d="M22.4423 19.8309L18.1069 15.6023C17.7814 15.2849 17.3664 15.1147 16.942 15.0744C18.249 13.4859 19.0345 11.4734 19.0345 9.28268C19.0345 4.16421 14.765 0 9.51724 0C4.26943 0 0 4.16421 0 9.28268C0 14.4011 4.26943 18.5654 9.51724 18.5654C11.4975 18.5654 13.3375 17.9713 14.8621 16.9576C14.8735 17.418 15.0556 17.8747 15.4154 18.2275L19.7508 22.456C20.122 22.8187 20.6099 23 21.0966 23C21.5832 23 22.0711 22.8187 22.4423 22.456C23.1859 21.7314 23.1859 20.5562 22.4423 19.8309ZM9.51724 15.4711C6.0187 15.4711 3.17241 12.6962 3.17241 9.28268C3.17241 5.87037 6.0187 3.09423 9.51724 3.09423C13.0158 3.09423 15.8621 5.87037 15.8621 9.28268C15.8621 12.6962 13.0158 15.4711 9.51724 15.4711Z" fill="black"/>
</svg>
