<svg width="32" height="18" viewBox="0 0 32 18" fill="none" xmlns="http://www.w3.org/2000/svg">
<path d="M27.0972 0.804945L15.9856 11.3987L4.87411 0.797831C4.60898 0.544888 4.29423 0.34424 3.94782 0.207348C3.60141 0.0704556 3.23013 0 2.85519 0C2.48024 0 2.10896 0.0704556 1.76255 0.207348C1.41615 0.34424 1.10139 0.544888 0.836264 0.797831C0.571136 1.05078 0.360825 1.35106 0.217338 1.68155C0.0738517 2.01204 0 2.36625 0 2.72397C0 3.08169 0.0738517 3.4359 0.217338 3.76639C0.360825 4.09687 0.571136 4.39716 0.836264 4.65011L13.9791 17.2008C14.2441 17.4542 14.5587 17.6552 14.9052 17.7923C15.2516 17.9294 15.623 18 15.9981 18C16.3731 18 16.7445 17.9294 17.091 17.7923C17.4374 17.6552 17.7521 17.4542 18.017 17.2008L31.1623 4.6596C31.4279 4.40686 31.6385 4.10664 31.7823 3.77613C31.926 3.44561 32 3.09129 32 2.73346C32 2.37562 31.926 2.0213 31.7823 1.69079C31.6385 1.36027 31.4279 1.06005 31.1623 0.80732C30.6186 0.301735 29.8895 0.0185852 29.1303 0.0181427C28.371 0.0177002 27.6415 0.299997 27.0972 0.804945Z" fill="white"/>
</svg>
