<svg width="343" height="343" viewBox="0 0 343 343" fill="none" xmlns="http://www.w3.org/2000/svg">
<rect opacity="0.5" x="0.5" y="0.5" width="342" height="342" rx="171" fill="#F7F7FA" stroke="black" stroke-dasharray="1 1"/>
<g clip-path="url(#clip0)">
<path d="M192.337 155.454C191.338 154.409 189.96 153.791 188.392 153.791H180.502V153.696C180.502 152.508 180.027 151.367 179.219 150.606C178.411 149.798 177.317 149.323 176.129 149.323H161.871C160.635 149.323 159.542 149.798 158.734 150.606C157.926 151.414 157.451 152.508 157.451 153.696V153.791H149.608C148.04 153.791 146.662 154.409 145.663 155.454C144.665 156.452 144 157.878 144 159.399V183.068C144 184.637 144.618 186.015 145.663 187.013C146.662 188.011 148.087 188.677 149.608 188.677H188.392C189.96 188.677 191.338 188.059 192.337 187.013C193.335 186.015 194 184.589 194 183.068V159.399C194 157.831 193.382 156.452 192.337 155.454ZM191.529 183.068H191.481C191.481 183.924 191.148 184.684 190.578 185.255C190.008 185.825 189.247 186.158 188.392 186.158H149.608C148.753 186.158 147.992 185.825 147.422 185.255C146.852 184.684 146.519 183.924 146.519 183.068V159.399C146.519 158.544 146.852 157.783 147.422 157.213C147.992 156.643 148.753 156.31 149.608 156.31H158.781C159.494 156.31 160.065 155.739 160.065 155.027V153.648C160.065 153.125 160.255 152.65 160.587 152.317C160.92 151.985 161.395 151.795 161.918 151.795H176.129C176.652 151.795 177.127 151.985 177.46 152.317C177.793 152.65 177.983 153.125 177.983 153.648V155.027C177.983 155.739 178.553 156.31 179.266 156.31H188.439C189.295 156.31 190.055 156.643 190.625 157.213C191.196 157.783 191.529 158.544 191.529 159.399V183.068Z" fill="#C4C4C4"/>
<path d="M169 159.542C165.768 159.542 162.821 160.872 160.73 162.964C158.591 165.103 157.308 168.002 157.308 171.234C157.308 174.466 158.639 177.412 160.73 179.504C162.869 181.642 165.768 182.926 169 182.926C172.232 182.926 175.179 181.595 177.27 179.504C179.409 177.365 180.692 174.466 180.692 171.234C180.692 168.002 179.361 165.055 177.27 162.964C175.179 160.872 172.232 159.542 169 159.542ZM175.464 177.745C173.801 179.361 171.519 180.407 169 180.407C166.481 180.407 164.2 179.361 162.536 177.745C160.873 176.082 159.875 173.8 159.875 171.281C159.875 168.762 160.92 166.481 162.536 164.817C164.2 163.154 166.481 162.156 169 162.156C171.519 162.156 173.801 163.201 175.464 164.817C177.128 166.481 178.126 168.762 178.126 171.281C178.173 173.8 177.128 176.082 175.464 177.745Z" fill="#C4C4C4"/>
<path d="M185.92 164.152C187.206 164.152 188.249 163.109 188.249 161.823C188.249 160.537 187.206 159.494 185.92 159.494C184.634 159.494 183.591 160.537 183.591 161.823C183.591 163.109 184.634 164.152 185.92 164.152Z" fill="#C4C4C4"/>
</g>
<defs>
<clipPath id="clip0">
<rect width="50" height="50" fill="white" transform="translate(144 144)"/>
</clipPath>
</defs>
</svg>
