<svg width="18" height="10" viewBox="0 0 18 10" fill="none" xmlns="http://www.w3.org/2000/svg">
<path d="M12.661 5.494C12.661 6.03067 12.605 6.49267 12.493 6.88C12.381 7.26267 12.2037 7.55667 11.961 7.762C11.7183 7.96733 11.3963 8.07 10.995 8.07C10.4303 8.07 10.0127 7.84367 9.742 7.391C9.476 6.93367 9.343 6.30133 9.343 5.494C9.343 4.95267 9.39667 4.49067 9.504 4.108C9.616 3.72533 9.79333 3.43367 10.036 3.233C10.2787 3.02767 10.5983 2.925 10.995 2.925C11.555 2.925 11.9727 3.15133 12.248 3.604C12.5233 4.052 12.661 4.682 12.661 5.494ZM9.959 5.494C9.959 6.18 10.036 6.69333 10.19 7.034C10.3487 7.37467 10.617 7.545 10.995 7.545C11.3683 7.545 11.6343 7.377 11.793 7.041C11.9563 6.70033 12.038 6.18467 12.038 5.494C12.038 4.81267 11.9563 4.30167 11.793 3.961C11.6343 3.62033 11.3683 3.45 10.995 3.45C10.617 3.45 10.3487 3.62033 10.19 3.961C10.036 4.30167 9.959 4.81267 9.959 5.494Z" fill="white"/>
<path d="M3.5 1C2.48228 1 1.6543 1.82798 1.6543 2.8457C1.6543 3.86342 2.48228 4.69141 3.5 4.69141C4.51772 4.69141 5.3457 3.86342 5.3457 2.8457C5.3457 1.82798 4.51772 1 3.5 1Z" fill="white"/>
<path d="M5.79641 5.8972C5.2911 5.38412 4.62122 5.10156 3.91016 5.10156H3.08984C2.3788 5.10156 1.7089 5.38412 1.20359 5.8972C0.700752 6.40776 0.423828 7.0817 0.423828 7.79492C0.423828 7.90818 0.515648 8 0.628906 8H6.37109C6.48435 8 6.57617 7.90818 6.57617 7.79492C6.57617 7.0817 6.29925 6.40776 5.79641 5.8972Z" fill="white"/>
</svg>
