<svg width="8" height="8" viewBox="0 0 8 8" fill="none" xmlns="http://www.w3.org/2000/svg">
<path d="M4 0C2.83689 0 1.89062 0.946266 1.89062 2.10938C1.89062 3.27248 2.83689 4.21875 4 4.21875C5.16311 4.21875 6.10938 3.27248 6.10938 2.10938C6.10938 0.946266 5.16311 0 4 0Z" fill="white"/>
<path d="M6.62447 5.5968C6.04697 5.01042 5.28139 4.6875 4.46875 4.6875H3.53125C2.71863 4.6875 1.95303 5.01042 1.37553 5.5968C0.800859 6.1803 0.484375 6.95052 0.484375 7.76562C0.484375 7.89506 0.589312 8 0.71875 8H7.28125C7.41069 8 7.51562 7.89506 7.51562 7.76562C7.51562 6.95052 7.19914 6.1803 6.62447 5.5968Z" fill="white"/>
</svg>
