<svg width="53" height="53" viewBox="0 0 53 53" fill="none" xmlns="http://www.w3.org/2000/svg">
<g filter="url(#filter0_d)">
<circle cx="22.5" cy="22.5" r="22.5" fill="white"/>
</g>
<g clip-path="url(#clip0)">
<path d="M10.6872 10.8371C8.56542 13.041 8.99967 15.3821 8.99967 22.4943C8.99967 28.4006 7.96917 34.3215 13.3624 35.7153C15.0466 36.1485 29.9686 36.1485 31.6504 35.7131C33.8959 35.1337 35.7229 33.3123 35.9727 30.1365C36.0076 29.6932 36.0076 15.3033 35.9716 14.8511C35.7061 11.4682 33.6237 9.51859 30.8798 9.12371C30.2509 9.03259 30.1249 9.00559 26.8984 8.99996C15.4538 9.00559 12.9451 8.49596 10.6872 10.8371Z" fill="url(#paint0_linear)"/>
<path d="M22.498 12.5315C18.4132 12.5315 14.5342 12.1681 13.0525 15.9706C12.4405 17.5411 12.5294 19.5807 12.5294 22.5012C12.5294 25.064 12.4473 27.4726 13.0525 29.0307C14.5308 32.8355 18.4413 32.471 22.4958 32.471C26.4074 32.471 30.4405 32.8782 31.9402 29.0307C32.5533 27.4445 32.4633 25.4352 32.4633 22.5012C32.4633 18.6065 32.6782 16.0921 30.7893 14.2043C28.8768 12.2918 26.2904 12.5315 22.4935 12.5315H22.498ZM21.6048 14.3281C30.1255 14.3146 31.21 13.3673 30.6115 26.5265C30.3989 31.1806 26.8552 30.6698 22.4992 30.6698C14.5567 30.6698 14.3283 30.4426 14.3283 22.4967C14.3283 14.4586 14.9583 14.3326 21.6048 14.3258V14.3281ZM27.8193 15.983C27.1589 15.983 26.6234 16.5185 26.6234 17.1788C26.6234 17.8392 27.1589 18.3747 27.8193 18.3747C28.4797 18.3747 29.0152 17.8392 29.0152 17.1788C29.0152 16.5185 28.4797 15.983 27.8193 15.983ZM22.498 17.3813C19.6709 17.3813 17.3793 19.6741 17.3793 22.5012C17.3793 25.3283 19.6709 27.62 22.498 27.62C25.3252 27.62 27.6157 25.3283 27.6157 22.5012C27.6157 19.6741 25.3252 17.3813 22.498 17.3813ZM22.498 19.178C26.8912 19.178 26.8968 25.8245 22.498 25.8245C18.106 25.8245 18.0993 19.178 22.498 19.178Z" fill="white"/>
</g>
<defs>
<filter id="filter0_d" x="0" y="0" width="53" height="53" filterUnits="userSpaceOnUse" color-interpolation-filters="sRGB">
<feFlood flood-opacity="0" result="BackgroundImageFix"/>
<feColorMatrix in="SourceAlpha" type="matrix" values="0 0 0 0 0 0 0 0 0 0 0 0 0 0 0 0 0 0 127 0"/>
<feOffset dx="4" dy="4"/>
<feGaussianBlur stdDeviation="2"/>
<feColorMatrix type="matrix" values="0 0 0 0 0 0 0 0 0 0 0 0 0 0 0 0 0 0 0.08 0"/>
<feBlend mode="normal" in2="BackgroundImageFix" result="effect1_dropShadow"/>
<feBlend mode="normal" in="SourceGraphic" in2="effect1_dropShadow" result="shape"/>
</filter>
<linearGradient id="paint0_linear" x1="10.7389" y1="34.2754" x2="35.8326" y2="12.5572" gradientUnits="userSpaceOnUse">
<stop stop-color="#FFDD55"/>
<stop offset="0.5" stop-color="#FF543E"/>
<stop offset="1" stop-color="#C837AB"/>
</linearGradient>
<clipPath id="clip0">
<rect width="27" height="27" fill="white" transform="translate(9 9)"/>
</clipPath>
</defs>
</svg>
