<svg width="9" height="15" viewBox="0 0 9 15" fill="none" xmlns="http://www.w3.org/2000/svg">
<path d="M0.840285 2.35349L5.31512 7.28746L0.83728 12.2214C0.730436 12.3392 0.645683 12.4789 0.587859 12.6327C0.530035 12.7866 0.500275 12.9514 0.500275 13.1179C0.500275 13.2844 0.530035 13.4493 0.587859 13.6031C0.645683 13.7569 0.730436 13.8967 0.83728 14.0144C0.944125 14.1321 1.07097 14.2255 1.21057 14.2892C1.35016 14.3529 1.49978 14.3857 1.65088 14.3857C1.80199 14.3857 1.95161 14.3529 2.09121 14.2892C2.2308 14.2255 2.35765 14.1321 2.46449 14.0144L7.76595 8.17843C7.87296 8.0608 7.95785 7.92106 8.01578 7.76723C8.0737 7.6134 8.10352 7.44849 8.10352 7.28194C8.10352 7.11539 8.0737 6.95048 8.01578 6.79665C7.95785 6.64282 7.87296 6.50309 7.76595 6.38546L2.4685 0.548373C2.36174 0.430469 2.23493 0.336926 2.09532 0.273101C1.95571 0.209276 1.80604 0.176422 1.65489 0.176422C1.50374 0.176422 1.35408 0.209276 1.21447 0.273101C1.07486 0.336926 0.948042 0.430469 0.841288 0.548373C0.627728 0.789813 0.508125 1.11356 0.507938 1.45071C0.507751 1.78785 0.626994 2.11176 0.840285 2.35349Z" fill="#1F1F1F"/>
</svg>
