<svg width="346" height="346" viewBox="0 0 346 346" fill="none" xmlns="http://www.w3.org/2000/svg">
<rect width="346" height="346" rx="17" fill="#F7F7FA"/>
<g clip-path="url(#clip0)">
<path d="M196.337 159.454C195.338 158.409 193.96 157.791 192.392 157.791H184.502V157.696C184.502 156.508 184.027 155.367 183.219 154.606C182.411 153.798 181.317 153.323 180.129 153.323H165.871C164.635 153.323 163.542 153.798 162.734 154.606C161.926 155.414 161.451 156.508 161.451 157.696V157.791H153.608C152.04 157.791 150.662 158.409 149.663 159.454C148.665 160.452 148 161.878 148 163.399V187.068C148 188.637 148.618 190.015 149.663 191.013C150.662 192.011 152.087 192.677 153.608 192.677H192.392C193.96 192.677 195.338 192.059 196.337 191.013C197.335 190.015 198 188.589 198 187.068V163.399C198 161.831 197.382 160.452 196.337 159.454ZM195.529 187.068H195.481C195.481 187.924 195.148 188.684 194.578 189.255C194.008 189.825 193.247 190.158 192.392 190.158H153.608C152.753 190.158 151.992 189.825 151.422 189.255C150.852 188.684 150.519 187.924 150.519 187.068V163.399C150.519 162.544 150.852 161.783 151.422 161.213C151.992 160.643 152.753 160.31 153.608 160.31H162.781C163.494 160.31 164.065 159.739 164.065 159.027V157.648C164.065 157.125 164.255 156.65 164.587 156.317C164.92 155.985 165.395 155.795 165.918 155.795H180.129C180.652 155.795 181.127 155.985 181.46 156.317C181.793 156.65 181.983 157.125 181.983 157.648V159.027C181.983 159.739 182.553 160.31 183.266 160.31H192.439C193.295 160.31 194.055 160.643 194.625 161.213C195.196 161.783 195.529 162.544 195.529 163.399V187.068Z" fill="#C4C4C4"/>
<path d="M173 163.542C169.768 163.542 166.821 164.872 164.73 166.964C162.591 169.103 161.308 172.002 161.308 175.234C161.308 178.466 162.639 181.412 164.73 183.504C166.869 185.642 169.768 186.926 173 186.926C176.232 186.926 179.179 185.595 181.27 183.504C183.409 181.365 184.692 178.466 184.692 175.234C184.692 172.002 183.361 169.055 181.27 166.964C179.179 164.872 176.232 163.542 173 163.542ZM179.464 181.745C177.801 183.361 175.519 184.407 173 184.407C170.481 184.407 168.2 183.361 166.536 181.745C164.873 180.082 163.875 177.8 163.875 175.281C163.875 172.762 164.92 170.481 166.536 168.817C168.2 167.154 170.481 166.156 173 166.156C175.519 166.156 177.801 167.201 179.464 168.817C181.128 170.481 182.126 172.762 182.126 175.281C182.173 177.8 181.128 180.082 179.464 181.745Z" fill="#C4C4C4"/>
<path d="M189.92 168.152C191.207 168.152 192.249 167.109 192.249 165.823C192.249 164.537 191.207 163.494 189.92 163.494C188.634 163.494 187.591 164.537 187.591 165.823C187.591 167.109 188.634 168.152 189.92 168.152Z" fill="#C4C4C4"/>
</g>
<defs>
<clipPath id="clip0">
<rect width="50" height="50" fill="white" transform="translate(148 148)"/>
</clipPath>
</defs>
</svg>
