<svg width="16" height="16" viewBox="0 0 16 16" fill="none" xmlns="http://www.w3.org/2000/svg">
<g clip-path="url(#clip0)">
<path d="M15.4677 3.6651C15.1483 3.3305 14.7072 3.13278 14.2053 3.13278H11.6806V3.10236C11.6806 2.72214 11.5285 2.35712 11.27 2.11377C11.0114 1.85522 10.6616 1.70312 10.2814 1.70312H5.71863C5.32319 1.70312 4.97338 1.85522 4.71483 2.11377C4.45627 2.37233 4.30418 2.72214 4.30418 3.10236V3.13278H1.79468C1.29278 3.13278 0.851711 3.3305 0.532319 3.6651C0.212928 3.98449 0 4.44077 0 4.92746V12.5016C0 13.0035 0.197719 13.4446 0.532319 13.764C0.851711 14.0834 1.30798 14.2963 1.79468 14.2963H14.2053C14.7072 14.2963 15.1483 14.0986 15.4677 13.764C15.7871 13.4446 16 12.9883 16 12.5016V4.92746C16 4.42556 15.8023 3.98449 15.4677 3.6651ZM15.2091 12.5016H15.1939C15.1939 12.7754 15.0875 13.0187 14.9049 13.2012C14.7224 13.3837 14.4791 13.4902 14.2053 13.4902H1.79468C1.52091 13.4902 1.27757 13.3837 1.09506 13.2012C0.912548 13.0187 0.806084 12.7754 0.806084 12.5016V4.92746C0.806084 4.6537 0.912548 4.41035 1.09506 4.22784C1.27757 4.04533 1.52091 3.93887 1.79468 3.93887H4.73004C4.95818 3.93887 5.14068 3.75636 5.14068 3.52822V3.08716C5.14068 2.91985 5.20152 2.76776 5.30799 2.6613C5.41445 2.55484 5.56654 2.494 5.73384 2.494H10.2814C10.4487 2.494 10.6008 2.55484 10.7072 2.6613C10.8137 2.76776 10.8745 2.91985 10.8745 3.08716V3.52822C10.8745 3.75636 11.057 3.93887 11.2852 3.93887H14.2205C14.4943 3.93887 14.7376 4.04533 14.9202 4.22784C15.1027 4.41035 15.2091 4.6537 15.2091 4.92746V12.5016Z" fill="#595959"/>
<path d="M8.00024 4.97314C6.96601 4.97314 6.02305 5.399 5.35385 6.0682C4.66944 6.75261 4.25879 7.68037 4.25879 8.71459C4.25879 9.74881 4.68464 10.6918 5.35385 11.361C6.03826 12.0454 6.96601 12.456 8.00024 12.456C9.03446 12.456 9.97742 12.0302 10.6466 11.361C11.331 10.6766 11.7417 9.74881 11.7417 8.71459C11.7417 7.68037 11.3158 6.7374 10.6466 6.0682C9.97742 5.399 9.03446 4.97314 8.00024 4.97314ZM10.0687 10.7982C9.53636 11.3154 8.80632 11.65 8.00024 11.65C7.19415 11.65 6.46411 11.3154 5.93179 10.7982C5.39947 10.2659 5.08008 9.53588 5.08008 8.7298C5.08008 7.92372 5.41468 7.19368 5.93179 6.66136C6.46411 6.12904 7.19415 5.80965 8.00024 5.80965C8.80632 5.80965 9.53636 6.14425 10.0687 6.66136C10.601 7.19368 10.9204 7.92372 10.9204 8.7298C10.9356 9.53588 10.601 10.2659 10.0687 10.7982Z" fill="#595959"/>
<path d="M13.4147 6.4485C13.8263 6.4485 14.1599 6.11484 14.1599 5.70326C14.1599 5.29167 13.8263 4.95801 13.4147 4.95801C13.0031 4.95801 12.6694 5.29167 12.6694 5.70326C12.6694 6.11484 13.0031 6.4485 13.4147 6.4485Z" fill="#595959"/>
</g>
<defs>
<clipPath id="clip0">
<rect width="16" height="16" fill="white"/>
</clipPath>
</defs>
</svg>
