<svg width="14" height="11" viewBox="0 0 14 11" fill="none" xmlns="http://www.w3.org/2000/svg">
<path d="M8.14138 2.60526C7.84178 2.60526 7.59862 2.34589 7.59862 2.02632V1.15789H5.42757V2.02632C5.42757 2.34589 5.18441 2.60526 4.8848 2.60526C4.5852 2.60526 4.34204 2.34589 4.34204 2.02632V1.15789C4.34204 0.519316 4.8289 0 5.42757 0H7.59862C8.19729 0 8.68415 0.519316 8.68415 1.15789V2.02632C8.68415 2.34589 8.44099 2.60526 8.14138 2.60526Z" fill="#B1B1B1"/>
<path d="M6.89852 7.3076C6.80082 7.34664 6.6597 7.37453 6.51316 7.37453C6.36661 7.37453 6.22549 7.34664 6.09523 7.29644L0 5.21045V9.4661C0 10.3139 0.667599 10.9999 1.4926 10.9999H11.5337C12.3587 10.9999 13.0263 10.3139 13.0263 9.4661V5.21045L6.89852 7.3076Z" fill="#B1B1B1"/>
<path d="M13.0263 3.24047V4.49261L6.64342 6.636C6.6 6.6524 6.55658 6.65787 6.51316 6.65787C6.46974 6.65787 6.42632 6.6524 6.38289 6.636L0 4.49261V3.24047C0 2.40936 0.667599 1.73682 1.4926 1.73682H11.5337C12.3587 1.73682 13.0263 2.40936 13.0263 3.24047Z" fill="#B1B1B1"/>
</svg>
