<svg width="13" height="13" viewBox="0 0 13 13" fill="none" xmlns="http://www.w3.org/2000/svg">
<path d="M6.49998 0C2.90876 0 0 2.90876 0 6.49998C0 10.0912 2.90876 13 6.49998 13C10.0912 13 13 10.0912 13 6.49998C13 2.90873 10.0912 0 6.49998 0ZM5.85 11.6545C3.28575 11.336 1.30001 9.15201 1.30001 6.50002C1.30001 6.10027 1.34876 5.71027 1.43651 5.33651L4.55002 8.45001V9.1C4.55002 9.81824 5.13176 10.4 5.85003 10.4V11.6545H5.85ZM10.3317 10.0068C10.166 9.48025 9.67848 9.1 9.09997 9.1H8.44998V7.15C8.44998 6.79252 8.15748 6.50002 7.79999 6.50002H3.9V5.20001H5.20001C5.5575 5.20001 5.85 4.90751 5.85 4.55002V3.25001H7.15C7.86824 3.25001 8.45001 2.66827 8.45001 1.95V1.68026C10.3545 2.45051 11.7 4.31599 11.7 6.49998C11.7 7.852 11.18 9.0805 10.3317 10.0068Z" fill="#B1B1B1"/>
</svg>
