<svg width="15" height="17" viewBox="0 0 15 17" fill="none" xmlns="http://www.w3.org/2000/svg">
<g clip-path="url(#clip0)">
<path d="M8 3.4C5.24284 3.4 3 5.57128 3 8.20781C3 9.14559 3.28407 10.0541 3.82151 10.8346L8 17L12.1785 10.8346C12.7159 10.0541 13 9.14559 13 8.20781C13 5.57128 10.7572 3.4 8 3.4ZM8 10.5984C6.62142 10.5984 5.5 9.52608 5.5 8.20781C5.5 6.88955 6.62142 5.79063 8 5.79063C9.37858 5.79063 10.5 6.88955 10.5 8.20781C10.5 9.52608 9.37858 10.5984 8 10.5984Z" fill="#D9D9D9"/>
</g>
<defs>
<clipPath id="clip0">
<rect width="15" height="17" fill="white"/>
</clipPath>
</defs>
</svg>
