<svg width="15" height="15" viewBox="0 0 15 15" fill="none" xmlns="http://www.w3.org/2000/svg">
<g clip-path="url(#clip0)">
<path d="M11.9408 2.56868C11.0304 0.997661 9.41347 0.0378662 7.61537 0.00118652C7.53862 -0.000395508 7.46136 -0.000395508 7.38457 0.00118652C5.58651 0.0378662 3.96955 0.997661 3.05918 2.56868C2.12865 4.1745 2.1032 6.1034 2.99107 7.72853L6.71069 14.5367C6.71236 14.5398 6.71403 14.5428 6.71575 14.5458C6.87941 14.8302 7.17258 15 7.50003 15C7.82745 15 8.12063 14.8302 8.28425 14.5458C8.28598 14.5428 8.28765 14.5398 8.28932 14.5367L12.0089 7.72853C12.8968 6.1034 12.8713 4.1745 11.9408 2.56868ZM7.49997 6.79689C6.33686 6.79689 5.3906 5.85063 5.3906 4.68751C5.3906 3.5244 6.33686 2.57814 7.49997 2.57814C8.66309 2.57814 9.60935 3.5244 9.60935 4.68751C9.60935 5.85063 8.66312 6.79689 7.49997 6.79689Z" fill="#B1B1B1"/>
</g>
<defs>
<clipPath id="clip0">
<rect width="15" height="15" fill="white"/>
</clipPath>
</defs>
</svg>
