<svg width="16" height="16" viewBox="0 0 16 16" fill="none" xmlns="http://www.w3.org/2000/svg">
<g clip-path="url(#clip0)">
<path d="M10.1658 2.51709L2.21094 10.4723L5.52516 13.7865L13.4803 5.83165L10.1658 2.51709Z" fill="black"/>
<path d="M15.8626 2.78511L13.2108 0.133301C13.035 -0.0424805 12.7237 -0.0424805 12.5479 0.133301L10.8284 1.85296L14.1429 5.16752L15.8626 3.44796C15.9505 3.36005 15.9999 3.24105 15.9999 3.11655C15.9999 2.99205 15.9505 2.87302 15.8626 2.78511Z" fill="black"/>
<path d="M1.54746 11.1353L1.21581 11.4669C1.15996 11.5228 1.11878 11.5919 1.09678 11.6679L0.0178385 15.3982C-0.0293178 15.5625 0.0159947 15.7392 0.13687 15.86C0.22612 15.9493 0.34562 15.9974 0.468276 15.9974C0.511776 15.9974 0.555714 15.9914 0.598745 15.9791L4.32906 14.9001C4.40506 14.8782 4.47418 14.837 4.53003 14.7811L4.86168 14.4494L1.54746 11.1353Z" fill="black"/>
</g>
<defs>
<clipPath id="clip0">
<rect width="16" height="16" fill="white"/>
</clipPath>
</defs>
</svg>
