<svg width="19" height="19" viewBox="0 0 19 19" fill="none" xmlns="http://www.w3.org/2000/svg">
<path d="M18.6703 11.5821L16.877 10.2164C16.9326 9.7398 16.9326 9.25857 16.877 8.78194L18.672 7.41554C19.0083 7.15173 19.0982 6.68912 18.8842 6.32382L17.0184 3.1833C16.8035 2.81569 16.3459 2.65516 15.9397 2.8049L13.826 3.63299C13.4288 3.35237 13.0033 3.11179 12.5561 2.91496L12.2318 0.728372C12.1733 0.308592 11.8034 -0.00342281 11.3684 2.83506e-05H7.62884C7.19743 -0.00249508 6.83058 0.306031 6.77037 0.722026L6.4452 2.91492C5.99939 3.11364 5.57461 3.35441 5.177 3.63377L3.05759 2.80408C2.65557 2.64974 2.19832 2.80835 1.98694 3.17536L0.119577 6.32144C-0.100263 6.68734 -0.00975878 7.15503 0.331757 7.41791L2.12511 8.78353C2.06898 9.26013 2.06898 9.74143 2.12511 10.218L0.330118 11.5836C-0.00682454 11.8471 -0.0971383 12.31 0.117138 12.6754L1.98206 15.8167C2.19668 16.1846 2.65461 16.3452 3.06083 16.1951L5.17452 15.367C5.57205 15.6478 5.99778 15.8886 6.44516 16.0859L6.77033 18.2709C6.82757 18.6895 7.19511 19.0017 7.62881 19H11.3684C11.8006 19.0034 12.1686 18.6947 12.2293 18.278L12.5545 16.0851C13.0002 15.8863 13.425 15.6455 13.8227 15.3662L15.9445 16.1967C16.3465 16.3507 16.8035 16.1922 17.0151 15.8254L18.8882 12.6667C19.0979 12.3019 19.0057 11.843 18.6703 11.5821ZM9.49861 13.4583C7.25372 13.4583 5.43384 11.6861 5.43384 9.49996C5.43384 7.31382 7.25368 5.54163 9.49861 5.54163C11.7435 5.54163 13.5634 7.31382 13.5634 9.49996C13.5607 11.685 11.7424 13.4557 9.49861 13.4583Z" fill="black"/>
</svg>
