<svg width="8" height="13" viewBox="0 0 8 13" fill="none" xmlns="http://www.w3.org/2000/svg">
<g clip-path="url(#clip0)">
<path d="M7.26226 10.9238L2.78742 6.44503L7.26526 1.96631C7.37211 1.85945 7.45686 1.73258 7.51468 1.59296C7.57251 1.45333 7.60227 1.30368 7.60227 1.15255C7.60227 1.00142 7.57251 0.851767 7.51468 0.712141C7.45686 0.572515 7.37211 0.445647 7.26526 0.338782C7.15842 0.231917 7.03158 0.147147 6.89198 0.0893115C6.75238 0.0314764 6.60276 0.00170898 6.45166 0.00170898C6.30056 0.00170898 6.15094 0.0314764 6.01134 0.0893115C5.87174 0.147147 5.7449 0.231917 5.63805 0.338782L0.336588 5.63628C0.229583 5.74306 0.144688 5.86989 0.0867639 6.00953C0.0288395 6.14917 -0.000976562 6.29887 -0.000976562 6.45005C-0.000976562 6.60123 0.0288395 6.75092 0.0867639 6.89056C0.144688 7.0302 0.229583 7.15704 0.336588 7.26381L5.63404 12.5623C5.7408 12.6693 5.86761 12.7542 6.00722 12.8122C6.14683 12.8701 6.2965 12.8999 6.44765 12.8999C6.5988 12.8999 6.74847 12.8701 6.88808 12.8122C7.02769 12.7542 7.1545 12.6693 7.26125 12.5623C7.47481 12.3432 7.59442 12.0493 7.5946 11.7432C7.59479 11.4372 7.47555 11.1432 7.26226 10.9238Z" fill="white"/>
</g>
<defs>
<clipPath id="clip0">
<rect width="7.6" height="12.9" fill="white"/>
</clipPath>
</defs>
</svg>
