<svg width="40" height="40" viewBox="0 0 40 40" fill="none" xmlns="http://www.w3.org/2000/svg">
<circle cx="20" cy="20" r="20" fill="#2F363E"/>
<g clip-path="url(#clip0)">
<path d="M22.1657 14.5171L14.2108 22.4723L17.525 25.7865L25.4802 17.8317L22.1657 14.5171Z" fill="white"/>
<path d="M27.8626 14.7854L25.2108 12.1335C25.035 11.9578 24.7237 11.9578 24.5479 12.1335L22.8284 13.8532L26.1429 17.1678L27.8626 15.4482C27.9505 15.3603 27.9999 15.2413 27.9999 15.1168C27.9999 14.9923 27.9505 14.8733 27.8626 14.7854Z" fill="white"/>
<path d="M13.5475 23.1351L13.2158 23.4668C13.16 23.5226 13.1188 23.5918 13.0968 23.6678L12.0178 27.398C11.9707 27.5624 12.016 27.7391 12.1369 27.8599C12.2261 27.9492 12.3456 27.9973 12.4683 27.9973C12.5118 27.9973 12.5557 27.9913 12.5987 27.9789L16.3291 26.9C16.4051 26.878 16.4742 26.8368 16.53 26.781L16.8617 26.4493L13.5475 23.1351Z" fill="white"/>
</g>
<defs>
<clipPath id="clip0">
<rect width="16" height="16" fill="white" transform="translate(12 12)"/>
</clipPath>
</defs>
</svg>
